<?xml version="1.0" encoding="UTF-8" standalone="no"?>
<!DOCTYPE svg PUBLIC "-//W3C//DTD SVG 1.1//EN"
 "http://www.w3.org/Graphics/SVG/1.1/DTD/svg11.dtd">
<!-- Generated by graphviz version 2.42.3 (20191010.1750)
 -->
<!-- Title: snakemake_dag Pages: 1 -->
<svg width="2793pt" height="1124pt"
 viewBox="0.00 0.00 2792.73 1124.00" xmlns="http://www.w3.org/2000/svg" xmlns:xlink="http://www.w3.org/1999/xlink">
<g id="graph0" class="graph" transform="scale(1 1) rotate(0) translate(4 1120)">
<title>snakemake_dag</title>
<polygon fill="white" stroke="transparent" points="-4,4 -4,-1120 2788.73,-1120 2788.73,4 -4,4"/>
<!-- 0 -->
<g id="node1" class="node">
<title>0</title>
<path fill="none" stroke="#afd856" stroke-width="2" d="M1205.73,-36C1205.73,-36 1107.73,-36 1107.73,-36 1101.73,-36 1095.73,-30 1095.73,-24 1095.73,-24 1095.73,-12 1095.73,-12 1095.73,-6 1101.73,0 1107.73,0 1107.73,0 1205.73,0 1205.73,0 1211.73,0 1217.73,-6 1217.73,-12 1217.73,-12 1217.73,-24 1217.73,-24 1217.73,-30 1211.73,-36 1205.73,-36"/>
<text text-anchor="middle" x="1156.73" y="-15.5" font-family="sans" font-size="10.00">generate_report_html</text>
</g>
<!-- 1 -->
<g id="node2" class="node">
<title>1</title>
<path fill="none" stroke="#56d892" stroke-width="2" d="M1202.73,-108C1202.73,-108 1110.73,-108 1110.73,-108 1104.73,-108 1098.73,-102 1098.73,-96 1098.73,-96 1098.73,-84 1098.73,-84 1098.73,-78 1104.73,-72 1110.73,-72 1110.73,-72 1202.73,-72 1202.73,-72 1208.73,-72 1214.73,-78 1214.73,-84 1214.73,-84 1214.73,-96 1214.73,-96 1214.73,-102 1208.73,-108 1202.73,-108"/>
<text text-anchor="middle" x="1156.73" y="-87.5" font-family="sans" font-size="10.00">generate_report_md</text>
</g>
<!-- 1&#45;&gt;0 -->
<g id="edge1" class="edge">
<title>1&#45;&gt;0</title>
<path fill="none" stroke="grey" stroke-width="2" d="M1156.73,-71.7C1156.73,-63.98 1156.73,-54.71 1156.73,-46.11"/>
<polygon fill="grey" stroke="grey" stroke-width="2" points="1160.23,-46.1 1156.73,-36.1 1153.23,-46.1 1160.23,-46.1"/>
</g>
<!-- 2 -->
<g id="node3" class="node">
<title>2</title>
<path fill="none" stroke="#56d8b1" stroke-width="2" d="M1578.73,-180C1578.73,-180 1420.73,-180 1420.73,-180 1414.73,-180 1408.73,-174 1408.73,-168 1408.73,-168 1408.73,-156 1408.73,-156 1408.73,-150 1414.73,-144 1420.73,-144 1420.73,-144 1578.73,-144 1578.73,-144 1584.73,-144 1590.73,-150 1590.73,-156 1590.73,-156 1590.73,-168 1590.73,-168 1590.73,-174 1584.73,-180 1578.73,-180"/>
<text text-anchor="middle" x="1499.73" y="-165" font-family="sans" font-size="10.00">diversity_beta_group_significance</text>
<text text-anchor="middle" x="1499.73" y="-154" font-family="sans" font-size="10.00">metric: weighted_unifrac</text>
</g>
<!-- 2&#45;&gt;1 -->
<g id="edge2" class="edge">
<title>2&#45;&gt;1</title>
<path fill="none" stroke="grey" stroke-width="2" d="M1416.27,-143.97C1357.56,-131.98 1279.96,-116.15 1224.95,-104.92"/>
<polygon fill="grey" stroke="grey" stroke-width="2" points="1225.45,-101.45 1214.96,-102.88 1224.05,-108.31 1225.45,-101.45"/>
</g>
<!-- 3 -->
<g id="node4" class="node">
<title>3</title>
<path fill="none" stroke="#56d863" stroke-width="2" stroke-dasharray="5,2" d="M142.23,-684C142.23,-684 41.23,-684 41.23,-684 35.23,-684 29.23,-678 29.23,-672 29.23,-672 29.23,-660 29.23,-660 29.23,-654 35.23,-648 41.23,-648 41.23,-648 142.23,-648 142.23,-648 148.23,-648 154.23,-654 154.23,-660 154.23,-660 154.23,-672 154.23,-672 154.23,-678 148.23,-684 142.23,-684"/>
<text text-anchor="middle" x="91.73" y="-663.5" font-family="sans" font-size="10.00">describe_fastq_counts</text>
</g>
<!-- 3&#45;&gt;1 -->
<g id="edge3" class="edge">
<title>3&#45;&gt;1</title>
<path fill="none" stroke="grey" stroke-width="2" d="M92.33,-647.95C93.2,-621.3 94.73,-568.12 94.73,-523 94.73,-523 94.73,-523 94.73,-233 94.73,-166.96 151.67,-166.59 213.73,-144 295.18,-114.35 885.42,-97.52 1088.4,-92.56"/>
<polygon fill="grey" stroke="grey" stroke-width="2" points="1088.71,-96.06 1098.63,-92.31 1088.55,-89.06 1088.71,-96.06"/>
</g>
<!-- 4 -->
<g id="node5" class="node">
<title>4</title>
<path fill="none" stroke="#c6d856" stroke-width="2" d="M1466.73,-252C1466.73,-252 1294.73,-252 1294.73,-252 1288.73,-252 1282.73,-246 1282.73,-240 1282.73,-240 1282.73,-228 1282.73,-228 1282.73,-222 1288.73,-216 1294.73,-216 1294.73,-216 1466.73,-216 1466.73,-216 1472.73,-216 1478.73,-222 1478.73,-228 1478.73,-228 1478.73,-240 1478.73,-240 1478.73,-246 1472.73,-252 1466.73,-252"/>
<text text-anchor="middle" x="1380.73" y="-231.5" font-family="sans" font-size="10.00">diversity_core_metrics_phylogenetic</text>
</g>
<!-- 4&#45;&gt;1 -->
<g id="edge4" class="edge">
<title>4&#45;&gt;1</title>
<path fill="none" stroke="grey" stroke-width="2" d="M1382.04,-215.83C1382.57,-195.89 1380.21,-163.28 1361.73,-144 1342.83,-124.27 1276.74,-109.58 1224.65,-100.73"/>
<polygon fill="grey" stroke="grey" stroke-width="2" points="1225.21,-97.28 1214.77,-99.09 1224.07,-104.18 1225.21,-97.28"/>
</g>
<!-- 4&#45;&gt;2 -->
<g id="edge26" class="edge">
<title>4&#45;&gt;2</title>
<path fill="none" stroke="grey" stroke-width="2" d="M1409.85,-215.88C1425.4,-206.72 1444.75,-195.34 1461.51,-185.48"/>
<polygon fill="grey" stroke="grey" stroke-width="2" points="1463.67,-188.28 1470.51,-180.19 1460.12,-182.24 1463.67,-188.28"/>
</g>
<!-- 7 -->
<g id="node8" class="node">
<title>7</title>
<path fill="none" stroke="#56d8b1" stroke-width="2" d="M1778.73,-180C1778.73,-180 1620.73,-180 1620.73,-180 1614.73,-180 1608.73,-174 1608.73,-168 1608.73,-168 1608.73,-156 1608.73,-156 1608.73,-150 1614.73,-144 1620.73,-144 1620.73,-144 1778.73,-144 1778.73,-144 1784.73,-144 1790.73,-150 1790.73,-156 1790.73,-156 1790.73,-168 1790.73,-168 1790.73,-174 1784.73,-180 1778.73,-180"/>
<text text-anchor="middle" x="1699.73" y="-165" font-family="sans" font-size="10.00">diversity_beta_group_significance</text>
<text text-anchor="middle" x="1699.73" y="-154" font-family="sans" font-size="10.00">metric: jaccard</text>
</g>
<!-- 4&#45;&gt;7 -->
<g id="edge33" class="edge">
<title>4&#45;&gt;7</title>
<path fill="none" stroke="grey" stroke-width="2" d="M1458.36,-215.97C1504.86,-205.76 1564.1,-192.76 1612.25,-182.2"/>
<polygon fill="grey" stroke="grey" stroke-width="2" points="1613.02,-185.61 1622.04,-180.05 1611.52,-178.77 1613.02,-185.61"/>
</g>
<!-- 10 -->
<g id="node11" class="node">
<title>10</title>
<path fill="none" stroke="#56d8b1" stroke-width="2" d="M1978.73,-180C1978.73,-180 1820.73,-180 1820.73,-180 1814.73,-180 1808.73,-174 1808.73,-168 1808.73,-168 1808.73,-156 1808.73,-156 1808.73,-150 1814.73,-144 1820.73,-144 1820.73,-144 1978.73,-144 1978.73,-144 1984.73,-144 1990.73,-150 1990.73,-156 1990.73,-156 1990.73,-168 1990.73,-168 1990.73,-174 1984.73,-180 1978.73,-180"/>
<text text-anchor="middle" x="1899.73" y="-165" font-family="sans" font-size="10.00">diversity_beta_group_significance</text>
<text text-anchor="middle" x="1899.73" y="-154" font-family="sans" font-size="10.00">metric: unweighted_unifrac</text>
</g>
<!-- 4&#45;&gt;10 -->
<g id="edge40" class="edge">
<title>4&#45;&gt;10</title>
<path fill="none" stroke="grey" stroke-width="2" d="M1479.1,-221.76C1561.71,-212.04 1683.1,-197.1 1798.41,-180.17"/>
<polygon fill="grey" stroke="grey" stroke-width="2" points="1799.09,-183.6 1808.47,-178.68 1798.07,-176.68 1799.09,-183.6"/>
</g>
<!-- 12 -->
<g id="node13" class="node">
<title>12</title>
<path fill="none" stroke="#56d85b" stroke-width="2" d="M2184.73,-180C2184.73,-180 2020.73,-180 2020.73,-180 2014.73,-180 2008.73,-174 2008.73,-168 2008.73,-168 2008.73,-156 2008.73,-156 2008.73,-150 2014.73,-144 2020.73,-144 2020.73,-144 2184.73,-144 2184.73,-144 2190.73,-144 2196.73,-150 2196.73,-156 2196.73,-156 2196.73,-168 2196.73,-168 2196.73,-174 2190.73,-180 2184.73,-180"/>
<text text-anchor="middle" x="2102.73" y="-165" font-family="sans" font-size="10.00">diversity_alpha_group_significance</text>
<text text-anchor="middle" x="2102.73" y="-154" font-family="sans" font-size="10.00">metric: evenness</text>
</g>
<!-- 4&#45;&gt;12 -->
<g id="edge45" class="edge">
<title>4&#45;&gt;12</title>
<path fill="none" stroke="grey" stroke-width="2" d="M1478.84,-225.54C1622.71,-214.45 1885.23,-193.58 1998.33,-180.1"/>
<polygon fill="grey" stroke="grey" stroke-width="2" points="1998.98,-183.55 2008.48,-178.86 1998.13,-176.6 1998.98,-183.55"/>
</g>
<!-- 13 -->
<g id="node14" class="node">
<title>13</title>
<path fill="none" stroke="#56d85b" stroke-width="2" d="M728.73,-180C728.73,-180 564.73,-180 564.73,-180 558.73,-180 552.73,-174 552.73,-168 552.73,-168 552.73,-156 552.73,-156 552.73,-150 558.73,-144 564.73,-144 564.73,-144 728.73,-144 728.73,-144 734.73,-144 740.73,-150 740.73,-156 740.73,-156 740.73,-168 740.73,-168 740.73,-174 734.73,-180 728.73,-180"/>
<text text-anchor="middle" x="646.73" y="-165" font-family="sans" font-size="10.00">diversity_alpha_group_significance</text>
<text text-anchor="middle" x="646.73" y="-154" font-family="sans" font-size="10.00">metric: shannon</text>
</g>
<!-- 4&#45;&gt;13 -->
<g id="edge46" class="edge">
<title>4&#45;&gt;13</title>
<path fill="none" stroke="grey" stroke-width="2" d="M1282.29,-223.81C1254.03,-221.22 1223.16,-218.45 1194.73,-216 1000.32,-199.25 948.39,-204.01 751.11,-180.11"/>
<polygon fill="grey" stroke="grey" stroke-width="2" points="751.34,-176.62 740.99,-178.88 750.49,-183.56 751.34,-176.62"/>
</g>
<!-- 17 -->
<g id="node18" class="node">
<title>17</title>
<path fill="none" stroke="#56d85b" stroke-width="2" d="M934.73,-180C934.73,-180 770.73,-180 770.73,-180 764.73,-180 758.73,-174 758.73,-168 758.73,-168 758.73,-156 758.73,-156 758.73,-150 764.73,-144 770.73,-144 770.73,-144 934.73,-144 934.73,-144 940.73,-144 946.73,-150 946.73,-156 946.73,-156 946.73,-168 946.73,-168 946.73,-174 940.73,-180 934.73,-180"/>
<text text-anchor="middle" x="852.73" y="-165" font-family="sans" font-size="10.00">diversity_alpha_group_significance</text>
<text text-anchor="middle" x="852.73" y="-154" font-family="sans" font-size="10.00">metric: observed_features</text>
</g>
<!-- 4&#45;&gt;17 -->
<g id="edge50" class="edge">
<title>4&#45;&gt;17</title>
<path fill="none" stroke="grey" stroke-width="2" d="M1282.68,-221.89C1198.8,-212.12 1074.6,-197.05 956.67,-180.11"/>
<polygon fill="grey" stroke="grey" stroke-width="2" points="957.13,-176.64 946.73,-178.67 956.13,-183.56 957.13,-176.64"/>
</g>
<!-- 20 -->
<g id="node21" class="node">
<title>20</title>
<path fill="none" stroke="#56d8b1" stroke-width="2" d="M1134.73,-180C1134.73,-180 976.73,-180 976.73,-180 970.73,-180 964.73,-174 964.73,-168 964.73,-168 964.73,-156 964.73,-156 964.73,-150 970.73,-144 976.73,-144 976.73,-144 1134.73,-144 1134.73,-144 1140.73,-144 1146.73,-150 1146.73,-156 1146.73,-156 1146.73,-168 1146.73,-168 1146.73,-174 1140.73,-180 1134.73,-180"/>
<text text-anchor="middle" x="1055.73" y="-165" font-family="sans" font-size="10.00">diversity_beta_group_significance</text>
<text text-anchor="middle" x="1055.73" y="-154" font-family="sans" font-size="10.00">metric: bray_curtis</text>
</g>
<!-- 4&#45;&gt;20 -->
<g id="edge53" class="edge">
<title>4&#45;&gt;20</title>
<path fill="none" stroke="grey" stroke-width="2" d="M1301.65,-215.97C1254.27,-205.76 1193.92,-192.76 1144.87,-182.2"/>
<polygon fill="grey" stroke="grey" stroke-width="2" points="1145.41,-178.73 1134.9,-180.05 1143.93,-185.58 1145.41,-178.73"/>
</g>
<!-- 23 -->
<g id="node24" class="node">
<title>23</title>
<path fill="none" stroke="#56d85b" stroke-width="2" d="M1340.73,-180C1340.73,-180 1176.73,-180 1176.73,-180 1170.73,-180 1164.73,-174 1164.73,-168 1164.73,-168 1164.73,-156 1164.73,-156 1164.73,-150 1170.73,-144 1176.73,-144 1176.73,-144 1340.73,-144 1340.73,-144 1346.73,-144 1352.73,-150 1352.73,-156 1352.73,-156 1352.73,-168 1352.73,-168 1352.73,-174 1346.73,-180 1340.73,-180"/>
<text text-anchor="middle" x="1258.73" y="-165" font-family="sans" font-size="10.00">diversity_alpha_group_significance</text>
<text text-anchor="middle" x="1258.73" y="-154" font-family="sans" font-size="10.00">metric: faith_pd</text>
</g>
<!-- 4&#45;&gt;23 -->
<g id="edge57" class="edge">
<title>4&#45;&gt;23</title>
<path fill="none" stroke="grey" stroke-width="2" d="M1350.89,-215.88C1334.79,-206.64 1314.73,-195.13 1297.45,-185.21"/>
<polygon fill="grey" stroke="grey" stroke-width="2" points="1299.11,-182.13 1288.69,-180.19 1295.63,-188.2 1299.11,-182.13"/>
</g>
<!-- 5 -->
<g id="node6" class="node">
<title>5</title>
<path fill="none" stroke="#56d8d8" stroke-width="2" stroke-dasharray="5,2" d="M792.73,-756C792.73,-756 738.73,-756 738.73,-756 732.73,-756 726.73,-750 726.73,-744 726.73,-744 726.73,-732 726.73,-732 726.73,-726 732.73,-720 738.73,-720 738.73,-720 792.73,-720 792.73,-720 798.73,-720 804.73,-726 804.73,-732 804.73,-732 804.73,-744 804.73,-744 804.73,-750 798.73,-756 792.73,-756"/>
<text text-anchor="middle" x="765.73" y="-735.5" font-family="sans" font-size="10.00">taxa_barplot</text>
</g>
<!-- 5&#45;&gt;1 -->
<g id="edge5" class="edge">
<title>5&#45;&gt;1</title>
<path fill="none" stroke="grey" stroke-width="2" d="M736.13,-719.96C671.24,-681.53 514.13,-582.5 411.73,-468 315.24,-360.11 262.9,-230.8 378.73,-144 434.83,-101.97 909.35,-93.26 1088.57,-91.46"/>
<polygon fill="grey" stroke="grey" stroke-width="2" points="1088.7,-94.96 1098.67,-91.36 1088.64,-87.96 1088.7,-94.96"/>
</g>
<!-- 6 -->
<g id="node7" class="node">
<title>6</title>
<path fill="none" stroke="#8fd856" stroke-width="2" stroke-dasharray="5,2" d="M494.73,-324C494.73,-324 346.73,-324 346.73,-324 340.73,-324 334.73,-318 334.73,-312 334.73,-312 334.73,-300 334.73,-300 334.73,-294 340.73,-288 346.73,-288 346.73,-288 494.73,-288 494.73,-288 500.73,-288 506.73,-294 506.73,-300 506.73,-300 506.73,-312 506.73,-312 506.73,-318 500.73,-324 494.73,-324"/>
<text text-anchor="middle" x="420.73" y="-303.5" font-family="sans" font-size="10.00">repseqs_detect_amplicon_locus</text>
</g>
<!-- 6&#45;&gt;1 -->
<g id="edge6" class="edge">
<title>6&#45;&gt;1</title>
<path fill="none" stroke="grey" stroke-width="2" d="M408.43,-287.78C402.08,-277.84 395.01,-264.8 391.73,-252 379.74,-205.11 369.49,-176.08 405.73,-144 456.2,-99.32 912.89,-92.23 1088.43,-91.17"/>
<polygon fill="grey" stroke="grey" stroke-width="2" points="1088.6,-94.66 1098.58,-91.11 1088.56,-87.66 1088.6,-94.66"/>
</g>
<!-- 7&#45;&gt;1 -->
<g id="edge7" class="edge">
<title>7&#45;&gt;1</title>
<path fill="none" stroke="grey" stroke-width="2" d="M1608.48,-145.3C1605.53,-144.85 1602.61,-144.42 1599.73,-144 1467.37,-124.84 1312.03,-107.42 1224.93,-98.1"/>
<polygon fill="grey" stroke="grey" stroke-width="2" points="1225.22,-94.61 1214.91,-97.03 1224.48,-101.57 1225.22,-94.61"/>
</g>
<!-- 8 -->
<g id="node9" class="node">
<title>8</title>
<path fill="none" stroke="#59d856" stroke-width="2" stroke-dasharray="5,2" d="M688.73,-324C688.73,-324 538.73,-324 538.73,-324 532.73,-324 526.73,-318 526.73,-312 526.73,-312 526.73,-300 526.73,-300 526.73,-294 532.73,-288 538.73,-288 538.73,-288 688.73,-288 688.73,-288 694.73,-288 700.73,-294 700.73,-300 700.73,-300 700.73,-312 700.73,-312 700.73,-318 694.73,-324 688.73,-324"/>
<text text-anchor="middle" x="613.73" y="-303.5" font-family="sans" font-size="10.00">tabulate_plot_repseq_properties</text>
</g>
<!-- 8&#45;&gt;1 -->
<g id="edge8" class="edge">
<title>8&#45;&gt;1</title>
<path fill="none" stroke="grey" stroke-width="2" d="M526.45,-288.42C471.65,-277.12 409.85,-262.39 401.73,-252 379.66,-223.72 423.19,-148.15 428.73,-144 480.81,-105.03 917.59,-94.48 1088.53,-91.83"/>
<polygon fill="grey" stroke="grey" stroke-width="2" points="1088.72,-95.33 1098.66,-91.68 1088.61,-88.33 1088.72,-95.33"/>
</g>
<!-- 19 -->
<g id="node20" class="node">
<title>19</title>
<path fill="none" stroke="#a7d856" stroke-width="2" stroke-dasharray="5,2" d="M542.23,-252C542.23,-252 423.23,-252 423.23,-252 417.23,-252 411.23,-246 411.23,-240 411.23,-240 411.23,-228 411.23,-228 411.23,-222 417.23,-216 423.23,-216 423.23,-216 542.23,-216 542.23,-216 548.23,-216 554.23,-222 554.23,-228 554.23,-228 554.23,-240 554.23,-240 554.23,-246 548.23,-252 542.23,-252"/>
<text text-anchor="middle" x="482.73" y="-231.5" font-family="sans" font-size="10.00">tabulate_repseqs_to_filter</text>
</g>
<!-- 8&#45;&gt;19 -->
<g id="edge52" class="edge">
<title>8&#45;&gt;19</title>
<path fill="none" stroke="grey" stroke-width="2" d="M581.69,-287.88C564.24,-278.55 542.47,-266.92 523.79,-256.94"/>
<polygon fill="grey" stroke="grey" stroke-width="2" points="525.37,-253.82 514.9,-252.19 522.07,-259.99 525.37,-253.82"/>
</g>
<!-- 36 -->
<g id="node37" class="node">
<title>36</title>
<path fill="none" stroke="#78d856" stroke-width="2" stroke-dasharray="5,2" d="M688.73,-252C688.73,-252 584.73,-252 584.73,-252 578.73,-252 572.73,-246 572.73,-240 572.73,-240 572.73,-228 572.73,-228 572.73,-222 578.73,-216 584.73,-216 584.73,-216 688.73,-216 688.73,-216 694.73,-216 700.73,-222 700.73,-228 700.73,-228 700.73,-240 700.73,-240 700.73,-246 694.73,-252 688.73,-252"/>
<text text-anchor="middle" x="636.73" y="-231.5" font-family="sans" font-size="10.00">import_outliers_to_qza</text>
</g>
<!-- 8&#45;&gt;36 -->
<g id="edge74" class="edge">
<title>8&#45;&gt;36</title>
<path fill="none" stroke="grey" stroke-width="2" d="M619.42,-287.7C621.98,-279.9 625.07,-270.51 627.92,-261.83"/>
<polygon fill="grey" stroke="grey" stroke-width="2" points="631.32,-262.7 631.11,-252.1 624.67,-260.51 631.32,-262.7"/>
</g>
<!-- 9 -->
<g id="node10" class="node">
<title>9</title>
<path fill="none" stroke="#56d873" stroke-width="2" stroke-dasharray="5,2" d="M2630.23,-180C2630.23,-180 2507.23,-180 2507.23,-180 2501.23,-180 2495.23,-174 2495.23,-168 2495.23,-168 2495.23,-156 2495.23,-156 2495.23,-150 2501.23,-144 2507.23,-144 2507.23,-144 2630.23,-144 2630.23,-144 2636.23,-144 2642.23,-150 2642.23,-156 2642.23,-156 2642.23,-168 2642.23,-168 2642.23,-174 2636.23,-180 2630.23,-180"/>
<text text-anchor="middle" x="2568.73" y="-159.5" font-family="sans" font-size="10.00">summarize_biom_features</text>
</g>
<!-- 9&#45;&gt;1 -->
<g id="edge9" class="edge">
<title>9&#45;&gt;1</title>
<path fill="none" stroke="grey" stroke-width="2" d="M2495.07,-145.27C2491.92,-144.8 2488.8,-144.37 2485.73,-144 2237.84,-113.87 1460.19,-96.82 1224.87,-92.26"/>
<polygon fill="grey" stroke="grey" stroke-width="2" points="1224.8,-88.75 1214.74,-92.06 1224.67,-95.75 1224.8,-88.75"/>
</g>
<!-- 10&#45;&gt;1 -->
<g id="edge10" class="edge">
<title>10&#45;&gt;1</title>
<path fill="none" stroke="grey" stroke-width="2" d="M1808.5,-145.16C1805.54,-144.75 1802.62,-144.36 1799.73,-144 1591.26,-117.74 1343.06,-101.51 1225.29,-94.71"/>
<polygon fill="grey" stroke="grey" stroke-width="2" points="1225.17,-91.19 1214.98,-94.12 1224.77,-98.18 1225.17,-91.19"/>
</g>
<!-- 11 -->
<g id="node12" class="node">
<title>11</title>
<path fill="none" stroke="#d87556" stroke-width="2" stroke-dasharray="5,2" d="M522.23,-180C522.23,-180 461.23,-180 461.23,-180 455.23,-180 449.23,-174 449.23,-168 449.23,-168 449.23,-156 449.23,-156 449.23,-150 455.23,-144 461.23,-144 461.23,-144 522.23,-144 522.23,-144 528.23,-144 534.23,-150 534.23,-156 534.23,-156 534.23,-168 534.23,-168 534.23,-174 528.23,-180 522.23,-180"/>
<text text-anchor="middle" x="491.73" y="-159.5" font-family="sans" font-size="10.00">visualize_tree</text>
</g>
<!-- 11&#45;&gt;1 -->
<g id="edge11" class="edge">
<title>11&#45;&gt;1</title>
<path fill="none" stroke="grey" stroke-width="2" d="M534.37,-146.2C537.52,-145.37 540.66,-144.63 543.73,-144 738.61,-104.27 974.27,-94.3 1088.31,-91.81"/>
<polygon fill="grey" stroke="grey" stroke-width="2" points="1088.71,-95.3 1098.63,-91.6 1088.56,-88.31 1088.71,-95.3"/>
</g>
<!-- 12&#45;&gt;1 -->
<g id="edge12" class="edge">
<title>12&#45;&gt;1</title>
<path fill="none" stroke="grey" stroke-width="2" d="M2008.49,-145.05C2005.54,-144.68 2002.62,-144.33 1999.73,-144 1713.13,-111.42 1369.26,-97.62 1225.34,-92.97"/>
<polygon fill="grey" stroke="grey" stroke-width="2" points="1225.02,-89.46 1214.91,-92.64 1224.8,-96.45 1225.02,-89.46"/>
</g>
<!-- 13&#45;&gt;1 -->
<g id="edge13" class="edge">
<title>13&#45;&gt;1</title>
<path fill="none" stroke="grey" stroke-width="2" d="M740.74,-145.35C743.77,-144.89 746.78,-144.44 749.73,-144 868.71,-126.44 1007.72,-109 1088.63,-99.15"/>
<polygon fill="grey" stroke="grey" stroke-width="2" points="1089.18,-102.61 1098.69,-97.93 1088.34,-95.66 1089.18,-102.61"/>
</g>
<!-- 14 -->
<g id="node15" class="node">
<title>14</title>
<path fill="none" stroke="#d85656" stroke-width="2" stroke-dasharray="5,2" d="M228.23,-540C228.23,-540 137.23,-540 137.23,-540 131.23,-540 125.23,-534 125.23,-528 125.23,-528 125.23,-516 125.23,-516 125.23,-510 131.23,-504 137.23,-504 137.23,-504 228.23,-504 228.23,-504 234.23,-504 240.23,-510 240.23,-516 240.23,-516 240.23,-528 240.23,-528 240.23,-534 234.23,-540 228.23,-540"/>
<text text-anchor="middle" x="182.73" y="-519.5" font-family="sans" font-size="10.00">visualize_taxonomy</text>
</g>
<!-- 14&#45;&gt;1 -->
<g id="edge14" class="edge">
<title>14&#45;&gt;1</title>
<path fill="none" stroke="grey" stroke-width="2" d="M187.59,-503.67C194.6,-477.08 206.73,-424.5 206.73,-379 206.73,-379 206.73,-379 206.73,-233 206.73,-188.06 216.84,-168.15 254.73,-144 324.38,-99.61 889.91,-92.39 1088.28,-91.22"/>
<polygon fill="grey" stroke="grey" stroke-width="2" points="1088.59,-94.72 1098.57,-91.16 1088.55,-87.72 1088.59,-94.72"/>
</g>
<!-- 15 -->
<g id="node16" class="node">
<title>15</title>
<path fill="none" stroke="#56d8a9" stroke-width="2" d="M2772.73,-180C2772.73,-180 2672.73,-180 2672.73,-180 2666.73,-180 2660.73,-174 2660.73,-168 2660.73,-168 2660.73,-156 2660.73,-156 2660.73,-150 2666.73,-144 2672.73,-144 2672.73,-144 2772.73,-144 2772.73,-144 2778.73,-144 2784.73,-150 2784.73,-156 2784.73,-156 2784.73,-168 2784.73,-168 2784.73,-174 2778.73,-180 2772.73,-180"/>
<text text-anchor="middle" x="2722.73" y="-159.5" font-family="sans" font-size="10.00">summarize_metadata</text>
</g>
<!-- 15&#45;&gt;1 -->
<g id="edge15" class="edge">
<title>15&#45;&gt;1</title>
<path fill="none" stroke="grey" stroke-width="2" d="M2660.53,-145.36C2657.57,-144.85 2654.62,-144.39 2651.73,-144 2370.47,-105.73 1479.5,-94.17 1225.14,-91.61"/>
<polygon fill="grey" stroke="grey" stroke-width="2" points="1224.97,-88.11 1214.94,-91.51 1224.9,-95.11 1224.97,-88.11"/>
</g>
<!-- 16 -->
<g id="node17" class="node">
<title>16</title>
<path fill="none" stroke="#d88d56" stroke-width="2" d="M1751.73,-252C1751.73,-252 1625.73,-252 1625.73,-252 1619.73,-252 1613.73,-246 1613.73,-240 1613.73,-240 1613.73,-228 1613.73,-228 1613.73,-222 1619.73,-216 1625.73,-216 1625.73,-216 1751.73,-216 1751.73,-216 1757.73,-216 1763.73,-222 1763.73,-228 1763.73,-228 1763.73,-240 1763.73,-240 1763.73,-246 1757.73,-252 1751.73,-252"/>
<text text-anchor="middle" x="1688.73" y="-231.5" font-family="sans" font-size="10.00">diversity_alpha_rarefaction</text>
</g>
<!-- 16&#45;&gt;1 -->
<g id="edge16" class="edge">
<title>16&#45;&gt;1</title>
<path fill="none" stroke="grey" stroke-width="2" d="M1763.79,-227.94C1903.59,-218.16 2191.12,-196.19 2205.73,-180 2216.46,-168.12 2216.76,-155.6 2205.73,-144 2171.92,-108.43 1452.91,-95.2 1225.23,-91.9"/>
<polygon fill="grey" stroke="grey" stroke-width="2" points="1225.14,-88.39 1215.09,-91.75 1225.04,-95.39 1225.14,-88.39"/>
</g>
<!-- 17&#45;&gt;1 -->
<g id="edge17" class="edge">
<title>17&#45;&gt;1</title>
<path fill="none" stroke="grey" stroke-width="2" d="M926.71,-143.97C976.1,-132.59 1040.57,-117.75 1088.68,-106.67"/>
<polygon fill="grey" stroke="grey" stroke-width="2" points="1089.73,-110.02 1098.69,-104.37 1088.16,-103.2 1089.73,-110.02"/>
</g>
<!-- 18 -->
<g id="node19" class="node">
<title>18</title>
<path fill="none" stroke="#d8cb56" stroke-width="2" stroke-dasharray="5,2" d="M2464.73,-180C2464.73,-180 2340.73,-180 2340.73,-180 2334.73,-180 2328.73,-174 2328.73,-168 2328.73,-168 2328.73,-156 2328.73,-156 2328.73,-150 2334.73,-144 2340.73,-144 2340.73,-144 2464.73,-144 2464.73,-144 2470.73,-144 2476.73,-150 2476.73,-156 2476.73,-156 2476.73,-168 2476.73,-168 2476.73,-174 2470.73,-180 2464.73,-180"/>
<text text-anchor="middle" x="2402.73" y="-159.5" font-family="sans" font-size="10.00">summarize_biom_samples</text>
</g>
<!-- 18&#45;&gt;1 -->
<g id="edge18" class="edge">
<title>18&#45;&gt;1</title>
<path fill="none" stroke="grey" stroke-width="2" d="M2328.44,-145.86C2323.81,-145.16 2319.22,-144.53 2314.73,-144 1903.05,-95.08 1404.09,-90.57 1224.89,-90.68"/>
<polygon fill="grey" stroke="grey" stroke-width="2" points="1224.81,-87.18 1214.81,-90.69 1224.82,-94.18 1224.81,-87.18"/>
</g>
<!-- 19&#45;&gt;1 -->
<g id="edge19" class="edge">
<title>19&#45;&gt;1</title>
<path fill="none" stroke="grey" stroke-width="2" d="M463.69,-215.82C444.47,-196.47 420.23,-165 439.73,-144 483.31,-97.09 917.63,-91.33 1088.35,-90.89"/>
<polygon fill="grey" stroke="grey" stroke-width="2" points="1088.48,-94.39 1098.47,-90.87 1088.46,-87.39 1088.48,-94.39"/>
</g>
<!-- 20&#45;&gt;1 -->
<g id="edge20" class="edge">
<title>20&#45;&gt;1</title>
<path fill="none" stroke="grey" stroke-width="2" d="M1080.44,-143.88C1093.4,-134.89 1109.46,-123.76 1123.5,-114.03"/>
<polygon fill="grey" stroke="grey" stroke-width="2" points="1125.71,-116.76 1131.93,-108.19 1121.72,-111.01 1125.71,-116.76"/>
</g>
<!-- 21 -->
<g id="node22" class="node">
<title>21</title>
<path fill="none" stroke="#56c1d8" stroke-width="2" stroke-dasharray="5,2" d="M2144.73,-252C2144.73,-252 2026.73,-252 2026.73,-252 2020.73,-252 2014.73,-246 2014.73,-240 2014.73,-240 2014.73,-228 2014.73,-228 2014.73,-222 2020.73,-216 2026.73,-216 2026.73,-216 2144.73,-216 2144.73,-216 2150.73,-216 2156.73,-222 2156.73,-228 2156.73,-228 2156.73,-240 2156.73,-240 2156.73,-246 2150.73,-252 2144.73,-252"/>
<text text-anchor="middle" x="2085.73" y="-231.5" font-family="sans" font-size="10.00">summarize_feature_table</text>
</g>
<!-- 21&#45;&gt;1 -->
<g id="edge21" class="edge">
<title>21&#45;&gt;1</title>
<path fill="none" stroke="grey" stroke-width="2" d="M2156.98,-222.95C2182.7,-215.51 2209.2,-202.54 2224.73,-180 2233.81,-166.82 2235.76,-155.59 2224.73,-144 2190.23,-107.74 1455.76,-94.96 1225.28,-91.83"/>
<polygon fill="grey" stroke="grey" stroke-width="2" points="1225.07,-88.33 1215.02,-91.69 1224.97,-95.33 1225.07,-88.33"/>
</g>
<!-- 22 -->
<g id="node23" class="node">
<title>22</title>
<path fill="none" stroke="#70d856" stroke-width="2" stroke-dasharray="5,2" d="M158.73,-972C158.73,-972 24.73,-972 24.73,-972 18.73,-972 12.73,-966 12.73,-960 12.73,-960 12.73,-948 12.73,-948 12.73,-942 18.73,-936 24.73,-936 24.73,-936 158.73,-936 158.73,-936 164.73,-936 170.73,-942 170.73,-948 170.73,-948 170.73,-960 170.73,-960 170.73,-966 164.73,-972 158.73,-972"/>
<text text-anchor="middle" x="91.73" y="-951.5" font-family="sans" font-size="10.00">summarize_fastq_demux_pe</text>
</g>
<!-- 22&#45;&gt;1 -->
<g id="edge22" class="edge">
<title>22&#45;&gt;1</title>
<path fill="none" stroke="grey" stroke-width="2" d="M58.71,-935.89C44.66,-927 29.33,-914.87 19.73,-900 -2.2,-866.02 0.73,-851.45 0.73,-811 0.73,-811 0.73,-811 0.73,-233 0.73,-168.37 55.13,-166.45 115.73,-144 206.36,-110.43 870.64,-95.98 1088.06,-92.12"/>
<polygon fill="grey" stroke="grey" stroke-width="2" points="1088.44,-95.61 1098.38,-91.93 1088.32,-88.61 1088.44,-95.61"/>
</g>
<!-- 26 -->
<g id="node27" class="node">
<title>26</title>
<path fill="none" stroke="#d89556" stroke-width="2" stroke-dasharray="5,2" d="M142.23,-900C142.23,-900 41.23,-900 41.23,-900 35.23,-900 29.23,-894 29.23,-888 29.23,-888 29.23,-876 29.23,-876 29.23,-870 35.23,-864 41.23,-864 41.23,-864 142.23,-864 142.23,-864 148.23,-864 154.23,-870 154.23,-876 154.23,-876 154.23,-888 154.23,-888 154.23,-894 148.23,-900 142.23,-900"/>
<text text-anchor="middle" x="91.73" y="-879.5" font-family="sans" font-size="10.00">unzip_fastq_summary</text>
</g>
<!-- 22&#45;&gt;26 -->
<g id="edge60" class="edge">
<title>22&#45;&gt;26</title>
<path fill="none" stroke="grey" stroke-width="2" d="M91.73,-935.7C91.73,-927.98 91.73,-918.71 91.73,-910.11"/>
<polygon fill="grey" stroke="grey" stroke-width="2" points="95.23,-910.1 91.73,-900.1 88.23,-910.1 95.23,-910.1"/>
</g>
<!-- 23&#45;&gt;1 -->
<g id="edge23" class="edge">
<title>23&#45;&gt;1</title>
<path fill="none" stroke="grey" stroke-width="2" d="M1233.78,-143.88C1220.69,-134.89 1204.47,-123.76 1190.3,-114.03"/>
<polygon fill="grey" stroke="grey" stroke-width="2" points="1192.01,-110.96 1181.78,-108.19 1188.05,-116.73 1192.01,-110.96"/>
</g>
<!-- 24 -->
<g id="node25" class="node">
<title>24</title>
<path fill="none" stroke="#d8d356" stroke-width="2" stroke-dasharray="5,2" d="M2190.73,-612C2190.73,-612 2110.73,-612 2110.73,-612 2104.73,-612 2098.73,-606 2098.73,-600 2098.73,-600 2098.73,-588 2098.73,-588 2098.73,-582 2104.73,-576 2110.73,-576 2110.73,-576 2190.73,-576 2190.73,-576 2196.73,-576 2202.73,-582 2202.73,-588 2202.73,-588 2202.73,-600 2202.73,-600 2202.73,-606 2196.73,-612 2190.73,-612"/>
<text text-anchor="middle" x="2150.73" y="-591.5" font-family="sans" font-size="10.00">visualize_repseqs</text>
</g>
<!-- 24&#45;&gt;1 -->
<g id="edge24" class="edge">
<title>24&#45;&gt;1</title>
<path fill="none" stroke="grey" stroke-width="2" d="M2174.17,-575.9C2216.36,-542.93 2300.73,-466.11 2300.73,-379 2300.73,-379 2300.73,-379 2300.73,-233 2300.73,-185.79 2283.68,-167.5 2242.73,-144 2154.8,-93.54 1449.6,-90.45 1225.11,-90.76"/>
<polygon fill="grey" stroke="grey" stroke-width="2" points="1224.78,-87.26 1214.79,-90.77 1224.79,-94.26 1224.78,-87.26"/>
</g>
<!-- 25 -->
<g id="node26" class="node">
<title>25</title>
<path fill="none" stroke="#d8ac56" stroke-width="2" stroke-dasharray="5,2" d="M332.23,-684C332.23,-684 223.23,-684 223.23,-684 217.23,-684 211.23,-678 211.23,-672 211.23,-672 211.23,-660 211.23,-660 211.23,-654 217.23,-648 223.23,-648 223.23,-648 332.23,-648 332.23,-648 338.23,-648 344.23,-654 344.23,-660 344.23,-660 344.23,-672 344.23,-672 344.23,-678 338.23,-684 332.23,-684"/>
<text text-anchor="middle" x="277.73" y="-663.5" font-family="sans" font-size="10.00">unzip_taxonomy_to_tsv</text>
</g>
<!-- 25&#45;&gt;1 -->
<g id="edge25" class="edge">
<title>25&#45;&gt;1</title>
<path fill="none" stroke="grey" stroke-width="2" d="M275.96,-647.97C273.33,-621.34 268.73,-568.21 268.73,-523 268.73,-523 268.73,-523 268.73,-233 268.73,-192.03 260.99,-169.9 292.73,-144 353.83,-94.16 895.43,-90.42 1088.63,-90.69"/>
<polygon fill="grey" stroke="grey" stroke-width="2" points="1088.66,-94.19 1098.66,-90.71 1088.67,-87.19 1088.66,-94.19"/>
</g>
<!-- 26&#45;&gt;3 -->
<g id="edge27" class="edge">
<title>26&#45;&gt;3</title>
<path fill="none" stroke="grey" stroke-width="2" d="M91.73,-863.85C91.73,-826.83 91.73,-739.18 91.73,-694.39"/>
<polygon fill="grey" stroke="grey" stroke-width="2" points="95.23,-694.23 91.73,-684.23 88.23,-694.23 95.23,-694.23"/>
</g>
<!-- 27 -->
<g id="node28" class="node">
<title>27</title>
<path fill="none" stroke="#5692d8" stroke-width="2" stroke-dasharray="5,2" d="M1740.73,-324C1740.73,-324 1636.73,-324 1636.73,-324 1630.73,-324 1624.73,-318 1624.73,-312 1624.73,-312 1624.73,-300 1624.73,-300 1624.73,-294 1630.73,-288 1636.73,-288 1636.73,-288 1740.73,-288 1740.73,-288 1746.73,-288 1752.73,-294 1752.73,-300 1752.73,-300 1752.73,-312 1752.73,-312 1752.73,-318 1746.73,-324 1740.73,-324"/>
<text text-anchor="middle" x="1688.73" y="-303.5" font-family="sans" font-size="10.00">filter_table_by_contam</text>
</g>
<!-- 27&#45;&gt;4 -->
<g id="edge28" class="edge">
<title>27&#45;&gt;4</title>
<path fill="none" stroke="grey" stroke-width="2" d="M1624.54,-290.41C1578.43,-279.93 1515.8,-265.7 1465.57,-254.28"/>
<polygon fill="grey" stroke="grey" stroke-width="2" points="1466.22,-250.84 1455.69,-252.04 1464.67,-257.67 1466.22,-250.84"/>
</g>
<!-- 27&#45;&gt;11 -->
<g id="edge42" class="edge">
<title>27&#45;&gt;11</title>
<path fill="none" stroke="grey" stroke-width="2" d="M1624.38,-296.86C1542.8,-286.53 1397.81,-268.1 1273.73,-252 1152.37,-236.25 1122.45,-228.81 1000.73,-216 801.38,-195.02 745.32,-219.13 544.36,-179.81"/>
<polygon fill="grey" stroke="grey" stroke-width="2" points="544.86,-176.34 534.37,-177.83 543.5,-183.21 544.86,-176.34"/>
</g>
<!-- 27&#45;&gt;16 -->
<g id="edge48" class="edge">
<title>27&#45;&gt;16</title>
<path fill="none" stroke="grey" stroke-width="2" d="M1688.73,-287.7C1688.73,-279.98 1688.73,-270.71 1688.73,-262.11"/>
<polygon fill="grey" stroke="grey" stroke-width="2" points="1692.23,-262.1 1688.73,-252.1 1685.23,-262.1 1692.23,-262.1"/>
</g>
<!-- 27&#45;&gt;21 -->
<g id="edge54" class="edge">
<title>27&#45;&gt;21</title>
<path fill="none" stroke="grey" stroke-width="2" d="M1752.96,-293.68C1821.39,-281.61 1929.91,-262.48 2004.3,-249.36"/>
<polygon fill="grey" stroke="grey" stroke-width="2" points="2005.32,-252.73 2014.56,-247.55 2004.1,-245.84 2005.32,-252.73"/>
</g>
<!-- 35 -->
<g id="node36" class="node">
<title>35</title>
<path fill="none" stroke="#56a2d8" stroke-width="2" stroke-dasharray="5,2" d="M2449.73,-252C2449.73,-252 2355.73,-252 2355.73,-252 2349.73,-252 2343.73,-246 2343.73,-240 2343.73,-240 2343.73,-228 2343.73,-228 2343.73,-222 2349.73,-216 2355.73,-216 2355.73,-216 2449.73,-216 2449.73,-216 2455.73,-216 2461.73,-222 2461.73,-228 2461.73,-228 2461.73,-240 2461.73,-240 2461.73,-246 2455.73,-252 2449.73,-252"/>
<text text-anchor="middle" x="2402.73" y="-231.5" font-family="sans" font-size="10.00">unzip_table_to_biom</text>
</g>
<!-- 27&#45;&gt;35 -->
<g id="edge73" class="edge">
<title>27&#45;&gt;35</title>
<path fill="none" stroke="grey" stroke-width="2" d="M1753.04,-298.7C1886.97,-285.56 2194.85,-255.38 2333.19,-241.82"/>
<polygon fill="grey" stroke="grey" stroke-width="2" points="2333.64,-245.29 2343.25,-240.83 2332.96,-238.32 2333.64,-245.29"/>
</g>
<!-- 28 -->
<g id="node29" class="node">
<title>28</title>
<path fill="none" stroke="#56d8d0" stroke-width="2" stroke-dasharray="5,2" d="M1252.23,-324C1252.23,-324 1135.23,-324 1135.23,-324 1129.23,-324 1123.23,-318 1123.23,-312 1123.23,-312 1123.23,-300 1123.23,-300 1123.23,-294 1129.23,-288 1135.23,-288 1135.23,-288 1252.23,-288 1252.23,-288 1258.23,-288 1264.23,-294 1264.23,-300 1264.23,-300 1264.23,-312 1264.23,-312 1264.23,-318 1258.23,-324 1252.23,-324"/>
<text text-anchor="middle" x="1193.73" y="-303.5" font-family="sans" font-size="10.00">phylogeny_midpoint_root</text>
</g>
<!-- 28&#45;&gt;4 -->
<g id="edge29" class="edge">
<title>28&#45;&gt;4</title>
<path fill="none" stroke="grey" stroke-width="2" d="M1239.48,-287.88C1265.5,-278.14 1298.26,-265.87 1325.68,-255.61"/>
<polygon fill="grey" stroke="grey" stroke-width="2" points="1327,-258.85 1335.14,-252.07 1324.55,-252.3 1327,-258.85"/>
</g>
<!-- 28&#45;&gt;11 -->
<g id="edge43" class="edge">
<title>28&#45;&gt;11</title>
<path fill="none" stroke="grey" stroke-width="2" d="M1151.82,-287.99C1099.24,-267.41 1005.87,-233.37 922.73,-216 760.34,-182.06 711.29,-213.23 544.49,-179.84"/>
<polygon fill="grey" stroke="grey" stroke-width="2" points="544.88,-176.35 534.38,-177.77 543.47,-183.21 544.88,-176.35"/>
</g>
<!-- 28&#45;&gt;16 -->
<g id="edge49" class="edge">
<title>28&#45;&gt;16</title>
<path fill="none" stroke="grey" stroke-width="2" d="M1264.39,-295.01C1353.79,-282.37 1507.61,-260.61 1603.45,-247.06"/>
<polygon fill="grey" stroke="grey" stroke-width="2" points="1603.99,-250.52 1613.4,-245.65 1603.01,-243.59 1603.99,-250.52"/>
</g>
<!-- 29 -->
<g id="node30" class="node">
<title>29</title>
<path fill="none" stroke="#56d882" stroke-width="2" stroke-dasharray="5,2" d="M869.23,-972C869.23,-972 786.23,-972 786.23,-972 780.23,-972 774.23,-966 774.23,-960 774.23,-960 774.23,-948 774.23,-948 774.23,-942 780.23,-936 786.23,-936 786.23,-936 869.23,-936 869.23,-936 875.23,-936 881.23,-942 881.23,-948 881.23,-948 881.23,-960 881.23,-960 881.23,-966 875.23,-972 869.23,-972"/>
<text text-anchor="middle" x="827.73" y="-951.5" font-family="sans" font-size="10.00">denoise_dada2_pe</text>
</g>
<!-- 29&#45;&gt;5 -->
<g id="edge30" class="edge">
<title>29&#45;&gt;5</title>
<path fill="none" stroke="grey" stroke-width="2" d="M822.77,-935.85C812.02,-898.75 786.54,-810.81 773.59,-766.1"/>
<polygon fill="grey" stroke="grey" stroke-width="2" points="776.87,-764.86 770.73,-756.23 770.15,-766.81 776.87,-764.86"/>
</g>
<!-- 29&#45;&gt;8 -->
<g id="edge34" class="edge">
<title>29&#45;&gt;8</title>
<path fill="none" stroke="grey" stroke-width="2" d="M828.72,-935.96C830.18,-909.31 832.73,-856.14 832.73,-811 832.73,-811 832.73,-811 832.73,-593 832.73,-489.1 916.73,-441.06 851.73,-360 833.84,-337.68 768.48,-324.15 710.77,-316.36"/>
<polygon fill="grey" stroke="grey" stroke-width="2" points="711.21,-312.88 700.85,-315.06 710.31,-319.83 711.21,-312.88"/>
</g>
<!-- 30 -->
<g id="node31" class="node">
<title>30</title>
<path fill="none" stroke="#56d89a" stroke-width="2" stroke-dasharray="5,2" d="M710.23,-828C710.23,-828 633.23,-828 633.23,-828 627.23,-828 621.23,-822 621.23,-816 621.23,-816 621.23,-804 621.23,-804 621.23,-798 627.23,-792 633.23,-792 633.23,-792 710.23,-792 710.23,-792 716.23,-792 722.23,-798 722.23,-804 722.23,-804 722.23,-816 722.23,-816 722.23,-822 716.23,-828 710.23,-828"/>
<text text-anchor="middle" x="671.73" y="-807.5" font-family="sans" font-size="10.00">feature_classifier</text>
</g>
<!-- 29&#45;&gt;30 -->
<g id="edge66" class="edge">
<title>29&#45;&gt;30</title>
<path fill="none" stroke="grey" stroke-width="2" d="M808.92,-935.87C781.28,-910.71 729.58,-863.65 698.15,-835.04"/>
<polygon fill="grey" stroke="grey" stroke-width="2" points="700.37,-832.33 690.62,-828.19 695.66,-837.51 700.37,-832.33"/>
</g>
<!-- 40 -->
<g id="node41" class="node">
<title>40</title>
<path fill="none" stroke="#ced856" stroke-width="2" stroke-dasharray="5,2" d="M1012.73,-828C1012.73,-828 884.73,-828 884.73,-828 878.73,-828 872.73,-822 872.73,-816 872.73,-816 872.73,-804 872.73,-804 872.73,-798 878.73,-792 884.73,-792 884.73,-792 1012.73,-792 1012.73,-792 1018.73,-792 1024.73,-798 1024.73,-804 1024.73,-804 1024.73,-816 1024.73,-816 1024.73,-822 1018.73,-828 1012.73,-828"/>
<text text-anchor="middle" x="948.73" y="-807.5" font-family="sans" font-size="10.00">filter_table_req_by_chimera</text>
</g>
<!-- 29&#45;&gt;40 -->
<g id="edge78" class="edge">
<title>29&#45;&gt;40</title>
<path fill="none" stroke="grey" stroke-width="2" d="M838.08,-935.75C849.59,-917.16 869.29,-887.14 889.73,-864 898.8,-853.74 909.72,-843.46 919.69,-834.71"/>
<polygon fill="grey" stroke="grey" stroke-width="2" points="922.13,-837.24 927.43,-828.06 917.57,-831.93 922.13,-837.24"/>
</g>
<!-- 47 -->
<g id="node48" class="node">
<title>47</title>
<path fill="none" stroke="#5682d8" stroke-width="2" stroke-dasharray="5,2" d="M986.23,-900C986.23,-900 911.23,-900 911.23,-900 905.23,-900 899.23,-894 899.23,-888 899.23,-888 899.23,-876 899.23,-876 899.23,-870 905.23,-864 911.23,-864 911.23,-864 986.23,-864 986.23,-864 992.23,-864 998.23,-870 998.23,-876 998.23,-876 998.23,-888 998.23,-888 998.23,-894 992.23,-900 986.23,-900"/>
<text text-anchor="middle" x="948.73" y="-879.5" font-family="sans" font-size="10.00">remove_chimera</text>
</g>
<!-- 29&#45;&gt;47 -->
<g id="edge85" class="edge">
<title>29&#45;&gt;47</title>
<path fill="none" stroke="grey" stroke-width="2" d="M857.33,-935.88C873.3,-926.64 893.19,-915.13 910.34,-905.21"/>
<polygon fill="grey" stroke="grey" stroke-width="2" points="912.12,-908.23 919.02,-900.19 908.61,-902.17 912.12,-908.23"/>
</g>
<!-- 30&#45;&gt;5 -->
<g id="edge31" class="edge">
<title>30&#45;&gt;5</title>
<path fill="none" stroke="grey" stroke-width="2" d="M694.97,-791.7C706.92,-782.8 721.66,-771.82 734.58,-762.2"/>
<polygon fill="grey" stroke="grey" stroke-width="2" points="736.84,-764.88 742.77,-756.1 732.65,-759.27 736.84,-764.88"/>
</g>
<!-- 30&#45;&gt;8 -->
<g id="edge37" class="edge">
<title>30&#45;&gt;8</title>
<path fill="none" stroke="grey" stroke-width="2" d="M621.01,-807.23C535.71,-801.25 372.73,-775.61 372.73,-667 372.73,-667 372.73,-667 372.73,-449 372.73,-402.03 392.08,-388.08 429.73,-360 445.4,-348.32 485.46,-336.19 524.23,-326.49"/>
<polygon fill="grey" stroke="grey" stroke-width="2" points="525.16,-329.87 534.04,-324.08 523.49,-323.07 525.16,-329.87"/>
</g>
<!-- 30&#45;&gt;11 -->
<g id="edge44" class="edge">
<title>30&#45;&gt;11</title>
<path fill="none" stroke="grey" stroke-width="2" d="M678.83,-791.75C686.89,-773.17 701.08,-743.16 717.73,-720 788.94,-620.99 908.73,-644.95 908.73,-523 908.73,-523 908.73,-523 908.73,-305 908.73,-136.71 716.57,-221.57 544.23,-179.86"/>
<polygon fill="grey" stroke="grey" stroke-width="2" points="545.03,-176.46 534.48,-177.36 543.29,-183.24 545.03,-176.46"/>
</g>
<!-- 30&#45;&gt;14 -->
<g id="edge47" class="edge">
<title>30&#45;&gt;14</title>
<path fill="none" stroke="grey" stroke-width="2" d="M620.98,-808.26C549.86,-805.73 417.5,-795.55 312.73,-756 257.72,-735.23 232.79,-733.93 201.73,-684 176.12,-642.81 176.38,-584.11 179.29,-550.14"/>
<polygon fill="grey" stroke="grey" stroke-width="2" points="182.79,-550.34 180.3,-540.04 175.82,-549.64 182.79,-550.34"/>
</g>
<!-- 30&#45;&gt;25 -->
<g id="edge59" class="edge">
<title>30&#45;&gt;25</title>
<path fill="none" stroke="grey" stroke-width="2" d="M621.01,-804.46C544.3,-796.92 403.05,-780.21 358.73,-756 331.3,-741.01 308.27,-713.14 293.86,-692.57"/>
<polygon fill="grey" stroke="grey" stroke-width="2" points="296.73,-690.57 288.23,-684.25 290.94,-694.5 296.73,-690.57"/>
</g>
<!-- 46 -->
<g id="node47" class="node">
<title>46</title>
<path fill="none" stroke="#d8a456" stroke-width="2" stroke-dasharray="5,2" d="M1020.73,-756C1020.73,-756 876.73,-756 876.73,-756 870.73,-756 864.73,-750 864.73,-744 864.73,-744 864.73,-732 864.73,-732 864.73,-726 870.73,-720 876.73,-720 876.73,-720 1020.73,-720 1020.73,-720 1026.73,-720 1032.73,-726 1032.73,-732 1032.73,-732 1032.73,-744 1032.73,-744 1032.73,-750 1026.73,-756 1020.73,-756"/>
<text text-anchor="middle" x="948.73" y="-735.5" font-family="sans" font-size="10.00">filter_sequences_by_taxonomy</text>
</g>
<!-- 30&#45;&gt;46 -->
<g id="edge84" class="edge">
<title>30&#45;&gt;46</title>
<path fill="none" stroke="grey" stroke-width="2" d="M722.54,-796.16C764.17,-785.64 823.76,-770.58 871.32,-758.56"/>
<polygon fill="grey" stroke="grey" stroke-width="2" points="872.44,-761.89 881.28,-756.05 870.73,-755.1 872.44,-761.89"/>
</g>
<!-- 31 -->
<g id="node32" class="node">
<title>31</title>
<path fill="none" stroke="#56d8b9" stroke-width="2" stroke-dasharray="5,2" d="M540.23,-468C540.23,-468 433.23,-468 433.23,-468 427.23,-468 421.23,-462 421.23,-456 421.23,-456 421.23,-444 421.23,-444 421.23,-438 427.23,-432 433.23,-432 433.23,-432 540.23,-432 540.23,-432 546.23,-432 552.23,-438 552.23,-444 552.23,-444 552.23,-456 552.23,-456 552.23,-462 546.23,-468 540.23,-468"/>
<text text-anchor="middle" x="486.73" y="-447.5" font-family="sans" font-size="10.00">unzip_repseqs_to_fasta</text>
</g>
<!-- 31&#45;&gt;6 -->
<g id="edge32" class="edge">
<title>31&#45;&gt;6</title>
<path fill="none" stroke="grey" stroke-width="2" d="M461.09,-431.85C449.5,-422.65 436.83,-410.28 429.73,-396 420.2,-376.82 418.33,-352.47 418.63,-334.09"/>
<polygon fill="grey" stroke="grey" stroke-width="2" points="422.13,-334.17 419.01,-324.04 415.13,-333.9 422.13,-334.17"/>
</g>
<!-- 34 -->
<g id="node35" class="node">
<title>34</title>
<path fill="none" stroke="#68d856" stroke-width="2" stroke-dasharray="5,2" d="M522.73,-396C522.73,-396 450.73,-396 450.73,-396 444.73,-396 438.73,-390 438.73,-384 438.73,-384 438.73,-372 438.73,-372 438.73,-366 444.73,-360 450.73,-360 450.73,-360 522.73,-360 522.73,-360 528.73,-360 534.73,-366 534.73,-372 534.73,-372 534.73,-384 534.73,-384 534.73,-390 528.73,-396 522.73,-396"/>
<text text-anchor="middle" x="486.73" y="-375.5" font-family="sans" font-size="10.00">repseqs_lengths</text>
</g>
<!-- 31&#45;&gt;34 -->
<g id="edge72" class="edge">
<title>31&#45;&gt;34</title>
<path fill="none" stroke="grey" stroke-width="2" d="M486.73,-431.7C486.73,-423.98 486.73,-414.71 486.73,-406.11"/>
<polygon fill="grey" stroke="grey" stroke-width="2" points="490.23,-406.1 486.73,-396.1 483.23,-406.1 490.23,-406.1"/>
</g>
<!-- 32 -->
<g id="node33" class="node">
<title>32</title>
<path fill="none" stroke="#88d856" stroke-width="2" stroke-dasharray="5,2" d="M668.23,-396C668.23,-396 565.23,-396 565.23,-396 559.23,-396 553.23,-390 553.23,-384 553.23,-384 553.23,-372 553.23,-372 553.23,-366 559.23,-360 565.23,-360 565.23,-360 668.23,-360 668.23,-360 674.23,-360 680.23,-366 680.23,-372 680.23,-372 680.23,-384 680.23,-384 680.23,-390 674.23,-396 668.23,-396"/>
<text text-anchor="middle" x="616.73" y="-375.5" font-family="sans" font-size="10.00">alignment_count_gaps</text>
</g>
<!-- 32&#45;&gt;8 -->
<g id="edge35" class="edge">
<title>32&#45;&gt;8</title>
<path fill="none" stroke="grey" stroke-width="2" d="M615.99,-359.7C615.66,-351.98 615.27,-342.71 614.9,-334.11"/>
<polygon fill="grey" stroke="grey" stroke-width="2" points="618.39,-333.95 614.47,-324.1 611.4,-334.25 618.39,-333.95"/>
</g>
<!-- 33 -->
<g id="node34" class="node">
<title>33</title>
<path fill="none" stroke="#d8b456" stroke-width="2" stroke-dasharray="5,2" d="M830.73,-396C830.73,-396 710.73,-396 710.73,-396 704.73,-396 698.73,-390 698.73,-384 698.73,-384 698.73,-372 698.73,-372 698.73,-366 704.73,-360 710.73,-360 710.73,-360 830.73,-360 830.73,-360 836.73,-360 842.73,-366 842.73,-372 842.73,-372 842.73,-384 842.73,-384 842.73,-390 836.73,-396 830.73,-396"/>
<text text-anchor="middle" x="770.73" y="-375.5" font-family="sans" font-size="10.00">alignment_detect_outliers</text>
</g>
<!-- 33&#45;&gt;8 -->
<g id="edge36" class="edge">
<title>33&#45;&gt;8</title>
<path fill="none" stroke="grey" stroke-width="2" d="M732.33,-359.88C710.87,-350.31 683.94,-338.3 661.17,-328.15"/>
<polygon fill="grey" stroke="grey" stroke-width="2" points="662.57,-324.94 652.02,-324.07 659.72,-331.34 662.57,-324.94"/>
</g>
<!-- 34&#45;&gt;8 -->
<g id="edge38" class="edge">
<title>34&#45;&gt;8</title>
<path fill="none" stroke="grey" stroke-width="2" d="M517.8,-359.88C534.56,-350.64 555.44,-339.13 573.44,-329.21"/>
<polygon fill="grey" stroke="grey" stroke-width="2" points="575.48,-332.08 582.55,-324.19 572.1,-325.95 575.48,-332.08"/>
</g>
<!-- 35&#45;&gt;9 -->
<g id="edge39" class="edge">
<title>35&#45;&gt;9</title>
<path fill="none" stroke="grey" stroke-width="2" d="M2443.34,-215.88C2466.14,-206.26 2494.76,-194.19 2518.9,-184.01"/>
<polygon fill="grey" stroke="grey" stroke-width="2" points="2520.4,-187.18 2528.26,-180.07 2517.68,-180.73 2520.4,-187.18"/>
</g>
<!-- 35&#45;&gt;18 -->
<g id="edge51" class="edge">
<title>35&#45;&gt;18</title>
<path fill="none" stroke="grey" stroke-width="2" d="M2402.73,-215.7C2402.73,-207.98 2402.73,-198.71 2402.73,-190.11"/>
<polygon fill="grey" stroke="grey" stroke-width="2" points="2406.23,-190.1 2402.73,-180.1 2399.23,-190.1 2406.23,-190.1"/>
</g>
<!-- 36&#45;&gt;11 -->
<g id="edge41" class="edge">
<title>36&#45;&gt;11</title>
<path fill="none" stroke="grey" stroke-width="2" d="M601.26,-215.88C581.62,-206.39 557.01,-194.51 536.1,-184.42"/>
<polygon fill="grey" stroke="grey" stroke-width="2" points="537.62,-181.26 527.09,-180.07 534.57,-187.57 537.62,-181.26"/>
</g>
<!-- 37 -->
<g id="node38" class="node">
<title>37</title>
<path fill="none" stroke="#568ad8" stroke-width="2" stroke-dasharray="5,2" d="M217.23,-1044C217.23,-1044 132.23,-1044 132.23,-1044 126.23,-1044 120.23,-1038 120.23,-1032 120.23,-1032 120.23,-1020 120.23,-1020 120.23,-1014 126.23,-1008 132.23,-1008 132.23,-1008 217.23,-1008 217.23,-1008 223.23,-1008 229.23,-1014 229.23,-1020 229.23,-1020 229.23,-1032 229.23,-1032 229.23,-1038 223.23,-1044 217.23,-1044"/>
<text text-anchor="middle" x="174.73" y="-1023.5" font-family="sans" font-size="10.00">remove_primer_pe</text>
</g>
<!-- 37&#45;&gt;22 -->
<g id="edge55" class="edge">
<title>37&#45;&gt;22</title>
<path fill="none" stroke="grey" stroke-width="2" d="M154.22,-1007.7C143.87,-998.97 131.15,-988.24 119.9,-978.75"/>
<polygon fill="grey" stroke="grey" stroke-width="2" points="121.92,-975.88 112.02,-972.1 117.4,-981.23 121.92,-975.88"/>
</g>
<!-- 37&#45;&gt;29 -->
<g id="edge64" class="edge">
<title>37&#45;&gt;29</title>
<path fill="none" stroke="grey" stroke-width="2" d="M229.24,-1022.95C333.23,-1018.41 566.91,-1005.14 760.73,-972 761.83,-971.81 762.93,-971.62 764.04,-971.41"/>
<polygon fill="grey" stroke="grey" stroke-width="2" points="765.02,-974.79 774.14,-969.39 763.65,-967.92 765.02,-974.79"/>
</g>
<!-- 38 -->
<g id="node39" class="node">
<title>38</title>
<path fill="none" stroke="#d86e56" stroke-width="2" stroke-dasharray="5,2" d="M188.23,-1116C188.23,-1116 77.23,-1116 77.23,-1116 71.23,-1116 65.23,-1110 65.23,-1104 65.23,-1104 65.23,-1092 65.23,-1092 65.23,-1086 71.23,-1080 77.23,-1080 77.23,-1080 188.23,-1080 188.23,-1080 194.23,-1080 200.23,-1086 200.23,-1092 200.23,-1092 200.23,-1104 200.23,-1104 200.23,-1110 194.23,-1116 188.23,-1116"/>
<text text-anchor="middle" x="132.73" y="-1095.5" font-family="sans" font-size="10.00">import_fastq_demux_pe</text>
</g>
<!-- 38&#45;&gt;22 -->
<g id="edge56" class="edge">
<title>38&#45;&gt;22</title>
<path fill="none" stroke="grey" stroke-width="2" d="M124.58,-1079.63C120.03,-1069.43 114.53,-1056.18 110.73,-1044 104.4,-1023.67 99.47,-1000.07 96.22,-982.29"/>
<polygon fill="grey" stroke="grey" stroke-width="2" points="99.64,-981.54 94.46,-972.3 92.75,-982.76 99.64,-981.54"/>
</g>
<!-- 38&#45;&gt;37 -->
<g id="edge75" class="edge">
<title>38&#45;&gt;37</title>
<path fill="none" stroke="grey" stroke-width="2" d="M143.12,-1079.7C148,-1071.56 153.92,-1061.69 159.31,-1052.7"/>
<polygon fill="grey" stroke="grey" stroke-width="2" points="162.33,-1054.48 164.47,-1044.1 156.33,-1050.88 162.33,-1054.48"/>
</g>
<!-- 39 -->
<g id="node40" class="node">
<title>39</title>
<path fill="none" stroke="#5673d8" stroke-width="2" stroke-dasharray="5,2" d="M1042.73,-684C1042.73,-684 938.73,-684 938.73,-684 932.73,-684 926.73,-678 926.73,-672 926.73,-672 926.73,-660 926.73,-660 926.73,-654 932.73,-648 938.73,-648 938.73,-648 1042.73,-648 1042.73,-648 1048.73,-648 1054.73,-654 1054.73,-660 1054.73,-660 1054.73,-672 1054.73,-672 1054.73,-678 1048.73,-684 1042.73,-684"/>
<text text-anchor="middle" x="990.73" y="-663.5" font-family="sans" font-size="10.00">filter_sequences_by_id</text>
</g>
<!-- 39&#45;&gt;24 -->
<g id="edge58" class="edge">
<title>39&#45;&gt;24</title>
<path fill="none" stroke="grey" stroke-width="2" d="M1054.75,-661.14C1258.07,-648.87 1887.49,-610.89 2088.41,-598.76"/>
<polygon fill="grey" stroke="grey" stroke-width="2" points="2088.73,-602.25 2098.5,-598.15 2088.3,-595.26 2088.73,-602.25"/>
</g>
<!-- 39&#45;&gt;27 -->
<g id="edge62" class="edge">
<title>39&#45;&gt;27</title>
<path fill="none" stroke="grey" stroke-width="2" d="M1054.96,-652.21C1119.9,-635.09 1210.73,-597.78 1210.73,-523 1210.73,-523 1210.73,-523 1210.73,-449 1210.73,-365.89 1479.6,-327.57 1614.04,-313.61"/>
<polygon fill="grey" stroke="grey" stroke-width="2" points="1614.68,-317.06 1624.27,-312.56 1613.97,-310.1 1614.68,-317.06"/>
</g>
<!-- 39&#45;&gt;31 -->
<g id="edge69" class="edge">
<title>39&#45;&gt;31</title>
<path fill="none" stroke="grey" stroke-width="2" d="M950.34,-647.85C858.81,-608.98 635.82,-514.3 536.21,-472.01"/>
<polygon fill="grey" stroke="grey" stroke-width="2" points="537.54,-468.77 526.97,-468.08 534.81,-475.21 537.54,-468.77"/>
</g>
<!-- 49 -->
<g id="node50" class="node">
<title>49</title>
<path fill="none" stroke="#d87d56" stroke-width="2" stroke-dasharray="5,2" d="M1027.73,-612C1027.73,-612 953.73,-612 953.73,-612 947.73,-612 941.73,-606 941.73,-600 941.73,-600 941.73,-588 941.73,-588 941.73,-582 947.73,-576 953.73,-576 953.73,-576 1027.73,-576 1027.73,-576 1033.73,-576 1039.73,-582 1039.73,-588 1039.73,-588 1039.73,-600 1039.73,-600 1039.73,-606 1033.73,-612 1027.73,-612"/>
<text text-anchor="middle" x="990.73" y="-591.5" font-family="sans" font-size="10.00">alignment_mafft</text>
</g>
<!-- 39&#45;&gt;49 -->
<g id="edge87" class="edge">
<title>39&#45;&gt;49</title>
<path fill="none" stroke="grey" stroke-width="2" d="M990.73,-647.7C990.73,-639.98 990.73,-630.71 990.73,-622.11"/>
<polygon fill="grey" stroke="grey" stroke-width="2" points="994.23,-622.1 990.73,-612.1 987.23,-622.1 994.23,-622.1"/>
</g>
<!-- 40&#45;&gt;27 -->
<g id="edge61" class="edge">
<title>40&#45;&gt;27</title>
<path fill="none" stroke="grey" stroke-width="2" d="M1025.06,-808.82C1305.5,-807.17 2262.73,-792.34 2262.73,-667 2262.73,-667 2262.73,-667 2262.73,-449 2262.73,-347.27 1918.68,-317.95 1763.31,-309.89"/>
<polygon fill="grey" stroke="grey" stroke-width="2" points="1763.07,-306.37 1752.91,-309.37 1762.72,-313.36 1763.07,-306.37"/>
</g>
<!-- 40&#45;&gt;46 -->
<g id="edge83" class="edge">
<title>40&#45;&gt;46</title>
<path fill="none" stroke="grey" stroke-width="2" d="M948.73,-791.7C948.73,-783.98 948.73,-774.71 948.73,-766.11"/>
<polygon fill="grey" stroke="grey" stroke-width="2" points="952.23,-766.1 948.73,-756.1 945.23,-766.1 952.23,-766.1"/>
</g>
<!-- 41 -->
<g id="node42" class="node">
<title>41</title>
<path fill="none" stroke="#56a9d8" stroke-width="2" stroke-dasharray="5,2" d="M1040.23,-468C1040.23,-468 953.23,-468 953.23,-468 947.23,-468 941.23,-462 941.23,-456 941.23,-456 941.23,-444 941.23,-444 941.23,-438 947.23,-432 953.23,-432 953.23,-432 1040.23,-432 1040.23,-432 1046.23,-432 1052.23,-438 1052.23,-444 1052.23,-444 1052.23,-456 1052.23,-456 1052.23,-462 1046.23,-468 1040.23,-468"/>
<text text-anchor="middle" x="996.73" y="-447.5" font-family="sans" font-size="10.00">phylogeny_fasttree</text>
</g>
<!-- 41&#45;&gt;28 -->
<g id="edge63" class="edge">
<title>41&#45;&gt;28</title>
<path fill="none" stroke="grey" stroke-width="2" d="M1020.5,-431.87C1055.7,-406.5 1121.8,-358.85 1161.38,-330.32"/>
<polygon fill="grey" stroke="grey" stroke-width="2" points="1163.82,-332.88 1169.89,-324.19 1159.73,-327.2 1163.82,-332.88"/>
</g>
<!-- 42 -->
<g id="node43" class="node">
<title>42</title>
<path fill="none" stroke="#bed856" stroke-width="2" stroke-dasharray="5,2" d="M616.23,-972C616.23,-972 545.23,-972 545.23,-972 539.23,-972 533.23,-966 533.23,-960 533.23,-960 533.23,-948 533.23,-948 533.23,-942 539.23,-936 545.23,-936 545.23,-936 616.23,-936 616.23,-936 622.23,-936 628.23,-942 628.23,-948 628.23,-948 628.23,-960 628.23,-960 628.23,-966 622.23,-972 616.23,-972"/>
<text text-anchor="middle" x="580.73" y="-951.5" font-family="sans" font-size="10.00">import_ref_seqs</text>
</g>
<!-- 42&#45;&gt;30 -->
<g id="edge65" class="edge">
<title>42&#45;&gt;30</title>
<path fill="none" stroke="grey" stroke-width="2" d="M578.81,-935.88C577.54,-916.87 578.13,-885.97 591.73,-864 599.43,-851.58 611.24,-841.44 623.44,-833.49"/>
<polygon fill="grey" stroke="grey" stroke-width="2" points="625.62,-836.27 632.35,-828.08 621.98,-830.28 625.62,-836.27"/>
</g>
<!-- 43 -->
<g id="node44" class="node">
<title>43</title>
<path fill="none" stroke="#d85e56" stroke-width="2" stroke-dasharray="5,2" d="M678.23,-900C678.23,-900 613.23,-900 613.23,-900 607.23,-900 601.23,-894 601.23,-888 601.23,-888 601.23,-876 601.23,-876 601.23,-870 607.23,-864 613.23,-864 613.23,-864 678.23,-864 678.23,-864 684.23,-864 690.23,-870 690.23,-876 690.23,-876 690.23,-888 690.23,-888 690.23,-894 684.23,-900 678.23,-900"/>
<text text-anchor="middle" x="645.73" y="-879.5" font-family="sans" font-size="10.00">build_classifier</text>
</g>
<!-- 42&#45;&gt;43 -->
<g id="edge80" class="edge">
<title>42&#45;&gt;43</title>
<path fill="none" stroke="grey" stroke-width="2" d="M596.8,-935.7C604.67,-927.22 614.29,-916.86 622.91,-907.58"/>
<polygon fill="grey" stroke="grey" stroke-width="2" points="625.61,-909.81 629.85,-900.1 620.48,-905.05 625.61,-909.81"/>
</g>
<!-- 43&#45;&gt;30 -->
<g id="edge67" class="edge">
<title>43&#45;&gt;30</title>
<path fill="none" stroke="grey" stroke-width="2" d="M652.16,-863.7C655.09,-855.81 658.62,-846.3 661.87,-837.55"/>
<polygon fill="grey" stroke="grey" stroke-width="2" points="665.18,-838.7 665.38,-828.1 658.62,-836.26 665.18,-838.7"/>
</g>
<!-- 44 -->
<g id="node45" class="node">
<title>44</title>
<path fill="none" stroke="#9fd856" stroke-width="2" stroke-dasharray="5,2" d="M740.23,-972C740.23,-972 675.23,-972 675.23,-972 669.23,-972 663.23,-966 663.23,-960 663.23,-960 663.23,-948 663.23,-948 663.23,-942 669.23,-936 675.23,-936 675.23,-936 740.23,-936 740.23,-936 746.23,-936 752.23,-942 752.23,-948 752.23,-948 752.23,-960 752.23,-960 752.23,-966 746.23,-972 740.23,-972"/>
<text text-anchor="middle" x="707.73" y="-951.5" font-family="sans" font-size="10.00">import_ref_tax</text>
</g>
<!-- 44&#45;&gt;30 -->
<g id="edge68" class="edge">
<title>44&#45;&gt;30</title>
<path fill="none" stroke="grey" stroke-width="2" d="M707.86,-935.91C707.57,-917.73 705.88,-888.29 698.73,-864 696.07,-854.93 691.86,-845.57 687.54,-837.29"/>
<polygon fill="grey" stroke="grey" stroke-width="2" points="690.59,-835.55 682.71,-828.46 684.45,-838.92 690.59,-835.55"/>
</g>
<!-- 44&#45;&gt;43 -->
<g id="edge81" class="edge">
<title>44&#45;&gt;43</title>
<path fill="none" stroke="grey" stroke-width="2" d="M692.41,-935.7C684.98,-927.3 675.91,-917.07 667.75,-907.86"/>
<polygon fill="grey" stroke="grey" stroke-width="2" points="670.13,-905.27 660.88,-900.1 664.89,-909.91 670.13,-905.27"/>
</g>
<!-- 45 -->
<g id="node46" class="node">
<title>45</title>
<path fill="none" stroke="#566bd8" stroke-width="2" stroke-dasharray="5,2" d="M830.23,-468C830.23,-468 711.23,-468 711.23,-468 705.23,-468 699.23,-462 699.23,-456 699.23,-456 699.23,-444 699.23,-444 699.23,-438 705.23,-432 711.23,-432 711.23,-432 830.23,-432 830.23,-432 836.23,-432 842.23,-438 842.23,-444 842.23,-444 842.23,-456 842.23,-456 842.23,-462 836.23,-468 830.23,-468"/>
<text text-anchor="middle" x="770.73" y="-447.5" font-family="sans" font-size="10.00">unzip_alignment_to_fasta</text>
</g>
<!-- 45&#45;&gt;32 -->
<g id="edge70" class="edge">
<title>45&#45;&gt;32</title>
<path fill="none" stroke="grey" stroke-width="2" d="M733.06,-431.88C712.1,-422.35 685.83,-410.41 663.56,-400.28"/>
<polygon fill="grey" stroke="grey" stroke-width="2" points="664.84,-397.02 654.28,-396.07 661.94,-403.39 664.84,-397.02"/>
</g>
<!-- 45&#45;&gt;33 -->
<g id="edge71" class="edge">
<title>45&#45;&gt;33</title>
<path fill="none" stroke="grey" stroke-width="2" d="M770.73,-431.7C770.73,-423.98 770.73,-414.71 770.73,-406.11"/>
<polygon fill="grey" stroke="grey" stroke-width="2" points="774.23,-406.1 770.73,-396.1 767.23,-406.1 774.23,-406.1"/>
</g>
<!-- 46&#45;&gt;39 -->
<g id="edge76" class="edge">
<title>46&#45;&gt;39</title>
<path fill="none" stroke="grey" stroke-width="2" d="M959.12,-719.7C964,-711.56 969.92,-701.69 975.31,-692.7"/>
<polygon fill="grey" stroke="grey" stroke-width="2" points="978.33,-694.48 980.47,-684.1 972.33,-690.88 978.33,-694.48"/>
</g>
<!-- 47&#45;&gt;40 -->
<g id="edge77" class="edge">
<title>47&#45;&gt;40</title>
<path fill="none" stroke="grey" stroke-width="2" d="M948.73,-863.7C948.73,-855.98 948.73,-846.71 948.73,-838.11"/>
<polygon fill="grey" stroke="grey" stroke-width="2" points="952.23,-838.1 948.73,-828.1 945.23,-838.1 952.23,-838.1"/>
</g>
<!-- 48 -->
<g id="node49" class="node">
<title>48</title>
<path fill="none" stroke="#56b9d8" stroke-width="2" stroke-dasharray="5,2" d="M1027.73,-540C1027.73,-540 953.73,-540 953.73,-540 947.73,-540 941.73,-534 941.73,-528 941.73,-528 941.73,-516 941.73,-516 941.73,-510 947.73,-504 953.73,-504 953.73,-504 1027.73,-504 1027.73,-504 1033.73,-504 1039.73,-510 1039.73,-516 1039.73,-516 1039.73,-528 1039.73,-528 1039.73,-534 1033.73,-540 1027.73,-540"/>
<text text-anchor="middle" x="990.73" y="-519.5" font-family="sans" font-size="10.00">alignment_mask</text>
</g>
<!-- 48&#45;&gt;41 -->
<g id="edge79" class="edge">
<title>48&#45;&gt;41</title>
<path fill="none" stroke="grey" stroke-width="2" d="M992.22,-503.7C992.88,-495.98 993.67,-486.71 994.41,-478.11"/>
<polygon fill="grey" stroke="grey" stroke-width="2" points="997.9,-478.37 995.27,-468.1 990.93,-477.77 997.9,-478.37"/>
</g>
<!-- 48&#45;&gt;45 -->
<g id="edge82" class="edge">
<title>48&#45;&gt;45</title>
<path fill="none" stroke="grey" stroke-width="2" d="M941.64,-505.38C909.94,-495.29 868.39,-482.07 834.2,-471.19"/>
<polygon fill="grey" stroke="grey" stroke-width="2" points="834.89,-467.74 824.3,-468.04 832.77,-474.41 834.89,-467.74"/>
</g>
<!-- 49&#45;&gt;48 -->
<g id="edge86" class="edge">
<title>49&#45;&gt;48</title>
<path fill="none" stroke="grey" stroke-width="2" d="M990.73,-575.7C990.73,-567.98 990.73,-558.71 990.73,-550.11"/>
<polygon fill="grey" stroke="grey" stroke-width="2" points="994.23,-550.1 990.73,-540.1 987.23,-550.1 994.23,-550.1"/>
</g>
</g>
</svg>
