<?xml version="1.0" encoding="UTF-8" standalone="no"?>
<!DOCTYPE svg PUBLIC "-//W3C//DTD SVG 1.1//EN"
 "http://www.w3.org/Graphics/SVG/1.1/DTD/svg11.dtd">
<!-- Generated by graphviz version 2.42.3 (20191010.1750)
 -->
<!-- Title: snakemake_dag Pages: 1 -->
<svg width="386pt" height="548pt"
 viewBox="0.00 0.00 386.00 548.00" xmlns="http://www.w3.org/2000/svg" xmlns:xlink="http://www.w3.org/1999/xlink">
<g id="graph0" class="graph" transform="scale(1 1) rotate(0) translate(4 544)">
<title>snakemake_dag</title>
<polygon fill="white" stroke="transparent" points="-4,4 -4,-544 382,-544 382,4 -4,4"/>
<!-- 0 -->
<g id="node1" class="node">
<title>0</title>
<path fill="none" stroke="#56d8c1" stroke-width="2" d="M265.5,-36C265.5,-36 161.5,-36 161.5,-36 155.5,-36 149.5,-30 149.5,-24 149.5,-24 149.5,-12 149.5,-12 149.5,-6 155.5,0 161.5,0 161.5,0 265.5,0 265.5,0 271.5,0 277.5,-6 277.5,-12 277.5,-12 277.5,-24 277.5,-24 277.5,-30 271.5,-36 265.5,-36"/>
<text text-anchor="middle" x="213.5" y="-15.5" font-family="sans" font-size="10.00">filter_table_by_contam</text>
</g>
<!-- 1 -->
<g id="node2" class="node">
<title>1</title>
<path fill="none" stroke="#d88d56" stroke-width="2" d="M219.5,-108C219.5,-108 115.5,-108 115.5,-108 109.5,-108 103.5,-102 103.5,-96 103.5,-96 103.5,-84 103.5,-84 103.5,-78 109.5,-72 115.5,-72 115.5,-72 219.5,-72 219.5,-72 225.5,-72 231.5,-78 231.5,-84 231.5,-84 231.5,-96 231.5,-96 231.5,-102 225.5,-108 219.5,-108"/>
<text text-anchor="middle" x="167.5" y="-87.5" font-family="sans" font-size="10.00">filter_sequences_by_id</text>
</g>
<!-- 1&#45;&gt;0 -->
<g id="edge1" class="edge">
<title>1&#45;&gt;0</title>
<path fill="none" stroke="grey" stroke-width="2" d="M178.87,-71.7C184.22,-63.56 190.7,-53.69 196.61,-44.7"/>
<polygon fill="grey" stroke="grey" stroke-width="2" points="199.69,-46.38 202.26,-36.1 193.84,-42.54 199.69,-46.38"/>
</g>
<!-- 2 -->
<g id="node3" class="node">
<title>2</title>
<path fill="none" stroke="#56c1d8" stroke-width="2" d="M329.5,-252C329.5,-252 201.5,-252 201.5,-252 195.5,-252 189.5,-246 189.5,-240 189.5,-240 189.5,-228 189.5,-228 189.5,-222 195.5,-216 201.5,-216 201.5,-216 329.5,-216 329.5,-216 335.5,-216 341.5,-222 341.5,-228 341.5,-228 341.5,-240 341.5,-240 341.5,-246 335.5,-252 329.5,-252"/>
<text text-anchor="middle" x="265.5" y="-231.5" font-family="sans" font-size="10.00">filter_table_req_by_chimera</text>
</g>
<!-- 2&#45;&gt;0 -->
<g id="edge2" class="edge">
<title>2&#45;&gt;0</title>
<path fill="none" stroke="grey" stroke-width="2" d="M264.61,-215.67C262.67,-185.71 256.85,-122.6 240.5,-72 237.55,-62.86 233.18,-53.37 228.81,-44.98"/>
<polygon fill="grey" stroke="grey" stroke-width="2" points="231.81,-43.18 223.95,-36.07 225.66,-46.52 231.81,-43.18"/>
</g>
<!-- 3 -->
<g id="node4" class="node">
<title>3</title>
<path fill="none" stroke="#70d856" stroke-width="2" d="M229.5,-180C229.5,-180 85.5,-180 85.5,-180 79.5,-180 73.5,-174 73.5,-168 73.5,-168 73.5,-156 73.5,-156 73.5,-150 79.5,-144 85.5,-144 85.5,-144 229.5,-144 229.5,-144 235.5,-144 241.5,-150 241.5,-156 241.5,-156 241.5,-168 241.5,-168 241.5,-174 235.5,-180 229.5,-180"/>
<text text-anchor="middle" x="157.5" y="-159.5" font-family="sans" font-size="10.00">filter_sequences_by_taxonomy</text>
</g>
<!-- 2&#45;&gt;3 -->
<g id="edge6" class="edge">
<title>2&#45;&gt;3</title>
<path fill="none" stroke="grey" stroke-width="2" d="M239.08,-215.88C225.09,-206.81 207.72,-195.55 192.61,-185.76"/>
<polygon fill="grey" stroke="grey" stroke-width="2" points="194.32,-182.69 184.02,-180.19 190.51,-188.57 194.32,-182.69"/>
</g>
<!-- 3&#45;&gt;1 -->
<g id="edge3" class="edge">
<title>3&#45;&gt;1</title>
<path fill="none" stroke="grey" stroke-width="2" d="M159.97,-143.7C161.07,-135.98 162.4,-126.71 163.63,-118.11"/>
<polygon fill="grey" stroke="grey" stroke-width="2" points="167.11,-118.5 165.06,-108.1 160.18,-117.51 167.11,-118.5"/>
</g>
<!-- 4 -->
<g id="node5" class="node">
<title>4</title>
<path fill="none" stroke="#88d856" stroke-width="2" d="M366,-324C366,-324 291,-324 291,-324 285,-324 279,-318 279,-312 279,-312 279,-300 279,-300 279,-294 285,-288 291,-288 291,-288 366,-288 366,-288 372,-288 378,-294 378,-300 378,-300 378,-312 378,-312 378,-318 372,-324 366,-324"/>
<text text-anchor="middle" x="328.5" y="-303.5" font-family="sans" font-size="10.00">remove_chimera</text>
</g>
<!-- 4&#45;&gt;2 -->
<g id="edge4" class="edge">
<title>4&#45;&gt;2</title>
<path fill="none" stroke="grey" stroke-width="2" d="M312.93,-287.7C305.3,-279.22 295.98,-268.86 287.62,-259.58"/>
<polygon fill="grey" stroke="grey" stroke-width="2" points="290.19,-257.2 280.89,-252.1 284.98,-261.88 290.19,-257.2"/>
</g>
<!-- 5 -->
<g id="node6" class="node">
<title>5</title>
<path fill="none" stroke="#56d8a2" stroke-width="2" d="M315,-396C315,-396 232,-396 232,-396 226,-396 220,-390 220,-384 220,-384 220,-372 220,-372 220,-366 226,-360 232,-360 232,-360 315,-360 315,-360 321,-360 327,-366 327,-372 327,-372 327,-384 327,-384 327,-390 321,-396 315,-396"/>
<text text-anchor="middle" x="273.5" y="-375.5" font-family="sans" font-size="10.00">denoise_dada2_pe</text>
</g>
<!-- 5&#45;&gt;2 -->
<g id="edge5" class="edge">
<title>5&#45;&gt;2</title>
<path fill="none" stroke="grey" stroke-width="2" d="M272.53,-359.81C271.94,-349.44 271.17,-335.96 270.5,-324 269.33,-303.27 268.01,-279.83 267.03,-262.21"/>
<polygon fill="grey" stroke="grey" stroke-width="2" points="270.51,-261.85 266.46,-252.06 263.52,-262.24 270.51,-261.85"/>
</g>
<!-- 5&#45;&gt;4 -->
<g id="edge8" class="edge">
<title>5&#45;&gt;4</title>
<path fill="none" stroke="grey" stroke-width="2" d="M287.1,-359.7C293.62,-351.39 301.57,-341.28 308.75,-332.14"/>
<polygon fill="grey" stroke="grey" stroke-width="2" points="311.63,-334.13 315.06,-324.1 306.13,-329.81 311.63,-334.13"/>
</g>
<!-- 6 -->
<g id="node7" class="node">
<title>6</title>
<path fill="none" stroke="#a7d856" stroke-width="2" d="M196,-324C196,-324 119,-324 119,-324 113,-324 107,-318 107,-312 107,-312 107,-300 107,-300 107,-294 113,-288 119,-288 119,-288 196,-288 196,-288 202,-288 208,-294 208,-300 208,-300 208,-312 208,-312 208,-318 202,-324 196,-324"/>
<text text-anchor="middle" x="157.5" y="-303.5" font-family="sans" font-size="10.00">feature_classifier</text>
</g>
<!-- 5&#45;&gt;6 -->
<g id="edge12" class="edge">
<title>5&#45;&gt;6</title>
<path fill="none" stroke="grey" stroke-width="2" d="M245.12,-359.88C229.96,-350.72 211.09,-339.34 194.76,-329.48"/>
<polygon fill="grey" stroke="grey" stroke-width="2" points="196.36,-326.36 185.99,-324.19 192.74,-332.35 196.36,-326.36"/>
</g>
<!-- 6&#45;&gt;3 -->
<g id="edge7" class="edge">
<title>6&#45;&gt;3</title>
<path fill="none" stroke="grey" stroke-width="2" d="M157.5,-287.87C157.5,-263.67 157.5,-219.21 157.5,-190.39"/>
<polygon fill="grey" stroke="grey" stroke-width="2" points="161,-190.19 157.5,-180.19 154,-190.19 161,-190.19"/>
</g>
<!-- 7 -->
<g id="node8" class="node">
<title>7</title>
<path fill="none" stroke="#d8bc56" stroke-width="2" stroke-dasharray="5,2" d="M316,-468C316,-468 231,-468 231,-468 225,-468 219,-462 219,-456 219,-456 219,-444 219,-444 219,-438 225,-432 231,-432 231,-432 316,-432 316,-432 322,-432 328,-438 328,-444 328,-444 328,-456 328,-456 328,-462 322,-468 316,-468"/>
<text text-anchor="middle" x="273.5" y="-447.5" font-family="sans" font-size="10.00">remove_primer_pe</text>
</g>
<!-- 7&#45;&gt;5 -->
<g id="edge9" class="edge">
<title>7&#45;&gt;5</title>
<path fill="none" stroke="grey" stroke-width="2" d="M273.5,-431.7C273.5,-423.98 273.5,-414.71 273.5,-406.11"/>
<polygon fill="grey" stroke="grey" stroke-width="2" points="277,-406.1 273.5,-396.1 270,-406.1 277,-406.1"/>
</g>
<!-- 8 -->
<g id="node9" class="node">
<title>8</title>
<path fill="none" stroke="#56a2d8" stroke-width="2" stroke-dasharray="5,2" d="M83,-396C83,-396 12,-396 12,-396 6,-396 0,-390 0,-384 0,-384 0,-372 0,-372 0,-366 6,-360 12,-360 12,-360 83,-360 83,-360 89,-360 95,-366 95,-372 95,-372 95,-384 95,-384 95,-390 89,-396 83,-396"/>
<text text-anchor="middle" x="47.5" y="-375.5" font-family="sans" font-size="10.00">import_ref_seqs</text>
</g>
<!-- 8&#45;&gt;6 -->
<g id="edge10" class="edge">
<title>8&#45;&gt;6</title>
<path fill="none" stroke="grey" stroke-width="2" d="M74.41,-359.88C88.66,-350.81 106.35,-339.55 121.74,-329.76"/>
<polygon fill="grey" stroke="grey" stroke-width="2" points="123.93,-332.51 130.49,-324.19 120.17,-326.61 123.93,-332.51"/>
</g>
<!-- 9 -->
<g id="node10" class="node">
<title>9</title>
<path fill="none" stroke="#d8a456" stroke-width="2" stroke-dasharray="5,2" d="M190,-396C190,-396 125,-396 125,-396 119,-396 113,-390 113,-384 113,-384 113,-372 113,-372 113,-366 119,-360 125,-360 125,-360 190,-360 190,-360 196,-360 202,-366 202,-372 202,-372 202,-384 202,-384 202,-390 196,-396 190,-396"/>
<text text-anchor="middle" x="157.5" y="-375.5" font-family="sans" font-size="10.00">import_ref_tax</text>
</g>
<!-- 9&#45;&gt;6 -->
<g id="edge11" class="edge">
<title>9&#45;&gt;6</title>
<path fill="none" stroke="grey" stroke-width="2" d="M157.5,-359.7C157.5,-351.98 157.5,-342.71 157.5,-334.11"/>
<polygon fill="grey" stroke="grey" stroke-width="2" points="161,-334.1 157.5,-324.1 154,-334.1 161,-334.1"/>
</g>
<!-- 10 -->
<g id="node11" class="node">
<title>10</title>
<path fill="none" stroke="#d6d856" stroke-width="2" stroke-dasharray="5,2" d="M329,-540C329,-540 218,-540 218,-540 212,-540 206,-534 206,-528 206,-528 206,-516 206,-516 206,-510 212,-504 218,-504 218,-504 329,-504 329,-504 335,-504 341,-510 341,-516 341,-516 341,-528 341,-528 341,-534 335,-540 329,-540"/>
<text text-anchor="middle" x="273.5" y="-519.5" font-family="sans" font-size="10.00">import_fastq_demux_pe</text>
</g>
<!-- 10&#45;&gt;7 -->
<g id="edge13" class="edge">
<title>10&#45;&gt;7</title>
<path fill="none" stroke="grey" stroke-width="2" d="M273.5,-503.7C273.5,-495.98 273.5,-486.71 273.5,-478.11"/>
<polygon fill="grey" stroke="grey" stroke-width="2" points="277,-478.1 273.5,-468.1 270,-478.1 277,-478.1"/>
</g>
</g>
</svg>
